<svg width="48" height="48" viewBox="0 0 48 48" fill="none" xmlns="http://www.w3.org/2000/svg" role="img" aria-labelledby="title desc">
  <title id="title">Admin user logo</title>
  <desc id="desc">A simple administrator identity mark with a user silhouette and shield.</desc>
  <rect x="4" y="4" width="40" height="40" rx="12" fill="#F4FBF8"/>
  <path d="M24 8.5L37 13V22.5C37 30.7 31.7 37.4 24 39.5C16.3 37.4 11 30.7 11 22.5V13L24 8.5Z" fill="#2FAF8C"/>
  <path d="M24 11.8L33.8 15.2V22.7C33.8 28.9 30 33.9 24 35.9C18 33.9 14.2 28.9 14.2 22.7V15.2L24 11.8Z" fill="#DDF6ED"/>
  <circle cx="24" cy="21.2" r="4.4" fill="#168766"/>
  <path d="M16.8 31C17.9 27.7 20.5 25.8 24 25.8C27.5 25.8 30.1 27.7 31.2 31C29.5 33.1 27.1 34.7 24 35.7C20.9 34.7 18.5 33.1 16.8 31Z" fill="#168766"/>
</svg>
